<svg width="541" height="541" xmlns="http://www.w3.org/2000/svg" xmlns:xlink="http://www.w3.org/1999/xlink" xml:space="preserve" overflow="hidden"><defs><clipPath id="clip0"><rect x="1589" y="479" width="541" height="541"/></clipPath></defs><g clip-path="url(#clip0)" transform="translate(-1589 -479)"><path d="M1859.5 1010C1832.71 1010 1811 988.286 1811 961.5L1811 868.5C1811 841.714 1832.71 820 1859.5 820L1859.5 820C1886.29 820 1908 841.714 1908 868.5L1908 961.5C1908 988.286 1886.29 1010 1859.5 1010Z" fill="#DB4F4F" fill-rule="evenodd"/><path d="M1917.08 631.633C1991.5 648.446 2038.19 722.4 2021.38 796.813L2005.77 865.892C1988.96 940.306 1915.01 987.001 1840.59 970.188L1840.59 970.188C1766.18 953.375 1719.48 879.421 1736.3 805.007L1751.9 735.928C1768.72 661.514 1842.67 614.82 1917.08 631.633Z" fill="#D13838" fill-rule="evenodd"/><path d="M0 138.135C0 61.845 61.8449-2.20945e-14 138.135-4.41891e-14L208.954 0C285.244-2.20945e-14 347.089 61.845 347.089 138.135L347.089 138.135C347.089 214.424 285.244 276.269 208.954 276.269L138.135 276.269C61.8449 276.269 0 214.424 0 138.135Z" fill="#D13838" fill-rule="evenodd" transform="matrix(0.220383 0.975413 0.975413 -0.220383 1664.95 660.967)"/><path d="M1754.75 759.2C1778.7 752.369 1803.65 766.247 1810.48 790.196L1830.42 860.107C1837.25 884.056 1823.37 909.009 1799.42 915.84L1799.42 915.839C1775.47 922.67 1750.52 908.793 1743.69 884.843L1723.75 814.933C1716.92 790.983 1730.8 766.03 1754.75 759.2Z" fill="#9E313A" fill-rule="evenodd" fill-opacity="0.301961"/><path d="M2056 703.5C2056 753.482 2015.48 794 1965.5 794L1749.5 794C1699.52 794 1659 753.482 1659 703.5L1659 703.5C1659 653.518 1699.52 612.999 1749.5 612.999L1965.5 613C2015.48 613 2056 653.518 2056 703.5Z" fill="#9E313A" fill-rule="evenodd"/><path d="M1862.65 668.596C1849.77 674.799 1834.31 669.387 1828.1 656.509L1773.8 543.768C1767.6 530.889 1773.01 515.421 1785.89 509.218L1785.89 509.218C1798.77 503.016 1814.24 508.427 1820.44 521.306L1874.74 634.047C1880.94 646.926 1875.53 662.394 1862.65 668.597Z" fill="#9E313A" fill-rule="evenodd"/><path d="M1829.23 655.734C1817.39 646.773 1815.06 629.911 1824.02 618.073L1868.66 559.096C1877.62 547.258 1894.49 544.926 1906.32 553.887L1906.32 553.887C1918.16 562.848 1920.5 579.709 1911.53 591.548L1866.89 650.524C1857.93 662.363 1841.07 664.695 1829.23 655.734Z" fill="#9E313A" fill-rule="evenodd"/><path d="M2014.5 679.5C1994.31 638.952 1959.11 646.03 1894.5 644.5" stroke="#FFFFFF" stroke-width="36.6667" stroke-linecap="round" stroke-miterlimit="8" fill="none" fill-rule="evenodd"/><path d="M1725 647C1725 637.059 1733.06 629 1743 629L1768 629C1777.94 629 1786 637.059 1786 647L1786 647C1786 656.941 1777.94 665 1768 665L1743 665C1733.06 665 1725 656.941 1725 647Z" fill="#FFFFFF" fill-rule="evenodd"/><path d="M1975.5 831.5C1976.07 922.105 1902.94 945.333 1846.5 936.887" stroke="#FFFFFF" stroke-width="36.6667" stroke-linecap="round" stroke-miterlimit="8" stroke-opacity="0.278431" fill="none" fill-rule="evenodd"/></g></svg>