<svg width="541" height="546" xmlns="http://www.w3.org/2000/svg" xmlns:xlink="http://www.w3.org/1999/xlink" xml:space="preserve" overflow="hidden"><defs><clipPath id="clip0"><rect x="1589" y="479" width="541" height="546"/></clipPath></defs><g clip-path="url(#clip0)" transform="translate(-1589 -479)"><path d="M1790.8 481.665C1801.66 481.136 1812.29 487.022 1817.31 497.436L1849.52 564.317 1869.31 538.182C1874.14 531.8 1881.1 527.98 1888.45 526.963 1895.79 525.947 1903.53 527.733 1909.91 532.565L1909.91 532.565C1922.68 542.227 1925.19 560.407 1915.53 573.172L1898.35 595.867 1973.01 595.867C2027.11 595.867 2070.97 639.726 2070.97 693.829 2070.97 720.881 2060.01 745.372 2042.28 763.099L2037.43 766.372 2037.51 768.263C2037.11 776.947 2035.95 785.716 2033.97 794.492L2017.14 868.974C2005.81 919.12 1970.41 957.592 1925.87 974.968L1910.61 979.275 1907.94 992.501C1900.01 1011.23 1881.46 1024.38 1859.84 1024.38 1838.22 1024.38 1819.67 1011.23 1811.75 992.501L1809.02 978.977 1790.58 973.773C1746.04 956.397 1710.64 917.925 1699.31 867.779L1682.48 793.297 1679.09 768.195 1671.54 763.1C1653.81 745.372 1642.84 720.881 1642.84 693.83 1642.84 639.727 1686.7 595.867 1740.81 595.867L1802.77 595.867 1767.03 521.654C1760.34 507.769 1766.17 491.091 1780.06 484.403 1783.53 482.731 1787.18 481.841 1790.8 481.665Z" fill="#FFE699" fill-rule="evenodd"/></g></svg>