<svg width="1860" height="1859" xmlns="http://www.w3.org/2000/svg" xmlns:xlink="http://www.w3.org/1999/xlink" xml:space="preserve" overflow="hidden"><defs><clipPath id="clip0"><rect x="456" y="308" width="1860" height="1859"/></clipPath><clipPath id="clip1"><rect x="704" y="399" width="1364" height="1733"/></clipPath><clipPath id="clip2"><rect x="704" y="399" width="1364" height="1733"/></clipPath><clipPath id="clip3"><rect x="704" y="399" width="1364" height="1733"/></clipPath><clipPath id="clip4"><rect x="704" y="399" width="1364" height="1733"/></clipPath></defs><g clip-path="url(#clip0)" transform="translate(-456 -308)"><path d="M6389.67 3470.59C6297.61 3470.59 6223.01 3395.98 6223.01 3303.93L6223.01 2984.36C6223.01 2892.32 6297.61 2817.71 6389.67 2817.71L6389.67 2817.71C6481.73 2817.71 6556.33 2892.32 6556.33 2984.36L6556.33 3303.93C6556.33 3395.98 6481.73 3470.59 6389.67 3470.59Z" fill="#DB4F4F" fill-rule="evenodd" transform="matrix(1.00054 0 0 1 -5007.1 -1337.95)"/><path d="M6587.53 2170.44C6843.25 2228.21 7003.69 2482.33 6945.93 2738.03L6892.29 2975.4C6834.52 3231.11 6580.41 3391.56 6324.69 3333.79L6324.69 3333.79C6069 3276.02 5908.53 3021.89 5966.33 2766.19L6019.93 2528.82C6077.73 2273.11 6331.84 2112.66 6587.53 2170.44Z" fill="#D13838" fill-rule="evenodd" transform="matrix(1.00054 0 0 1 -5007.1 -1337.95)"/><path d="M0 474.676C0 212.519 212.519-7.59237e-14 474.676-1.51848e-13L718.032 0C980.189-7.59237e-14 1192.71 212.519 1192.71 474.676L1192.71 474.676C1192.71 736.829 980.189 949.348 718.032 949.348L474.676 949.348C212.519 949.348 0 736.829 0 474.676Z" fill="#D13838" fill-rule="evenodd" transform="matrix(0.220496 0.975388 0.975912 -0.220377 717.122 933.28)"/><path d="M6029.72 2608.79C6112.02 2585.31 6197.75 2633 6221.22 2715.29L6289.74 2955.52C6313.21 3037.82 6265.52 3123.56 6183.22 3147.04L6183.22 3147.03C6100.92 3170.51 6015.19 3122.82 5991.72 3040.52L5923.2 2800.3C5899.73 2718 5947.43 2632.25 6029.72 2608.79Z" fill="#9E313A" fill-rule="evenodd" fill-opacity="0.301961" transform="matrix(1.00054 0 0 1 -5007.1 -1337.95)"/><path d="M7064.89 2417.39C7064.89 2589.14 6925.65 2728.37 6753.91 2728.37L6011.68 2728.37C5839.94 2728.37 5700.7 2589.14 5700.7 2417.39L5700.7 2417.39C5700.7 2245.64 5839.94 2106.41 6011.68 2106.41L6753.91 2106.41C6925.65 2106.41 7064.89 2245.64 7064.89 2417.39Z" fill="#9E313A" fill-rule="evenodd" transform="matrix(1.00054 0 0 1 -5007.1 -1337.95)"/><path d="M6400.49 2297.45C6356.23 2318.76 6303.11 2300.17 6281.77 2255.92L6095.18 1868.51C6073.88 1824.26 6092.47 1771.1 6136.73 1749.79L6136.73 1749.79C6180.99 1728.48 6234.14 1747.07 6255.45 1791.33L6442.04 2178.73C6463.34 2222.99 6444.75 2276.14 6400.49 2297.45Z" fill="#9E313A" fill-rule="evenodd" transform="matrix(1.00054 0 0 1 -5007.1 -1337.95)"/><path d="M6285.65 2253.25C6244.97 2222.46 6236.96 2164.52 6267.75 2123.84L6421.14 1921.18C6451.93 1880.5 6509.9 1872.49 6550.55 1903.28L6550.55 1903.28C6591.24 1934.07 6599.28 1992.01 6568.46 2032.69L6415.06 2235.35C6384.27 2276.03 6326.34 2284.04 6285.65 2253.25Z" fill="#9E313A" fill-rule="evenodd" transform="matrix(1.00054 0 0 1 -5007.1 -1337.95)"/><path d="M6922.28 2334.92C6852.91 2195.59 6731.95 2219.91 6509.94 2214.65" stroke="#FFFFFF" stroke-width="125.995" stroke-linecap="round" stroke-miterlimit="8" fill="none" fill-rule="evenodd" transform="matrix(1.00054 0 0 1 -5007.1 -1337.95)"/><path d="M5927.5 2223.24C5927.5 2189.08 5955.19 2161.39 5989.35 2161.39L6075.25 2161.39C6109.41 2161.39 6137.11 2189.08 6137.11 2223.24L6137.11 2223.24C6137.11 2257.4 6109.41 2285.09 6075.25 2285.09L5989.35 2285.09C5955.19 2285.09 5927.5 2257.4 5927.5 2223.24Z" fill="#FFFFFF" fill-rule="evenodd" transform="matrix(1.00054 0 0 1 -5007.1 -1337.95)"/><path d="M6788.27 2857.22C6790.23 3168.56 6538.94 3248.38 6345 3219.36" stroke="#FFFFFF" stroke-width="125.995" stroke-linecap="round" stroke-miterlimit="8" stroke-opacity="0.278431" fill="none" fill-rule="evenodd" transform="matrix(1.00054 0 0 1 -5007.1 -1337.95)"/><g clip-path="url(#clip1)"><g clip-path="url(#clip2)"><g clip-path="url(#clip3)"><g clip-path="url(#clip4)"><path d="M8134.18 3470.13C8042.14 3470.13 7967.55 3395.52 7967.55 3303.49L7967.55 2983.96C7967.55 2891.93 8042.14 2817.33 8134.18 2817.33L8134.18 2817.33C8226.23 2817.33 8300.82 2891.93 8300.82 2983.96L8300.82 3303.49C8300.82 3395.52 8226.23 3470.13 8134.18 3470.13Z" fill="#DB4F4F" fill-rule="evenodd" transform="matrix(1 0 0 1.00079 -6737.87 -1340.88)"/><path d="M8330.64 2170.14C8586.33 2227.91 8746.75 2482 8688.99 2737.66L8635.36 2975C8577.6 3230.67 8323.53 3391.1 8067.84 3333.34L8067.84 3333.34C7812.18 3275.58 7651.73 3021.49 7709.52 2765.82L7763.12 2528.48C7820.91 2272.81 8074.98 2112.38 8330.64 2170.14Z" fill="#D13838" fill-rule="evenodd" transform="matrix(1 0 0 1.00079 -6737.87 -1340.88)"/><path d="M0 474.618C0 212.493 212.493-7.59145e-14 474.618-1.51829e-13L717.945 0C980.07-7.59145e-14 1192.56 212.493 1192.56 474.618L1192.56 474.618C1192.56 736.739 980.07 949.232 717.945 949.232L474.618 949.232C212.493 949.232 0 736.739 0 474.618Z" fill="#D13838" fill-rule="evenodd" transform="matrix(0.220375 0.976149 0.975376 -0.220549 726.504 931.849)"/><path d="M7772.91 2608.43C7855.2 2584.97 7940.92 2632.64 7964.39 2714.93L8032.9 2955.12C8056.36 3037.41 8008.67 3123.14 7926.39 3146.61L7926.39 3146.61C7844.1 3170.08 7758.38 3122.4 7734.91 3040.12L7666.4 2799.92C7642.94 2717.63 7690.62 2631.9 7772.91 2608.43Z" fill="#9E313A" fill-rule="evenodd" fill-opacity="0.301961" transform="matrix(1 0 0 1.00079 -6737.87 -1340.88)"/><path d="M8805.87 2417.06C8805.87 2588.79 8666.66 2728 8494.94 2728L7752.81 2728C7581.09 2728 7441.87 2588.79 7441.87 2417.06L7441.87 2417.06C7441.87 2245.34 7581.09 2106.12 7752.81 2106.12L8494.94 2106.13C8666.66 2106.13 8805.87 2245.34 8805.87 2417.06Z" fill="#9E313A" fill-rule="evenodd" transform="matrix(1 0 0 1.00079 -6737.87 -1340.88)"/><path d="M8143.63 2297.14C8099.38 2318.45 8046.26 2299.86 8024.92 2255.61L7838.36 1868.26C7817.06 1824.01 7835.65 1770.86 7879.9 1749.56L7879.9 1749.56C7924.15 1728.24 7977.3 1746.84 7998.61 1791.08L8185.17 2178.44C8206.47 2222.68 8187.88 2275.83 8143.63 2297.14Z" fill="#9E313A" fill-rule="evenodd" transform="matrix(1 0 0 1.00079 -6737.87 -1340.88)"/><path d="M8028.81 2252.95C7988.13 2222.16 7980.12 2164.23 8010.91 2123.56L8164.28 1920.92C8195.06 1880.25 8253.03 1872.24 8293.67 1903.02L8293.67 1903.02C8334.35 1933.82 8342.39 1991.75 8311.57 2032.42L8158.2 2235.05C8127.41 2275.72 8069.49 2283.74 8028.81 2252.95Z" fill="#9E313A" fill-rule="evenodd" transform="matrix(1 0 0 1.00079 -6737.87 -1340.88)"/><path d="M8663.29 2334.6C8594.51 2195.29 8474.6 2219.61 8254.43 2214.35" stroke="#FFFFFF" stroke-width="125.978" stroke-linecap="round" stroke-miterlimit="8" fill="none" fill-rule="evenodd" transform="matrix(1 0 0 1.00079 -6737.87 -1340.88)"/><path d="M7668.63 2222.94C7668.63 2188.79 7696.33 2161.1 7730.48 2161.1L7816.37 2161.1C7850.52 2161.1 7878.22 2188.79 7878.22 2222.94L7878.22 2222.94C7878.22 2257.1 7850.52 2284.79 7816.37 2284.79L7730.48 2284.79C7696.33 2284.79 7668.63 2257.1 7668.63 2222.94Z" fill="#FFFFFF" fill-rule="evenodd" transform="matrix(1 0 0 1.00079 -6737.87 -1340.88)"/><path d="M8529.29 2856.84C8531.25 3168.14 8281.92 3247.95 8089.52 3218.93" stroke="#FFFFFF" stroke-width="125.978" stroke-linecap="round" stroke-miterlimit="8" stroke-opacity="0.278431" fill="none" fill-rule="evenodd" transform="matrix(1 0 0 1.00079 -6737.87 -1340.88)"/><path d="M8373.45 2099.25 8530.53 2099.25 8562.83 2105.78C8592.58 2118.4 8613.47 2147.94 8613.47 2182.36L8613.47 3334.09 8452.64 3084.16 8290.51 3336.13 8290.51 2182.36C8290.51 2147.94 8311.4 2118.4 8341.15 2105.78Z" fill="#4472C4" fill-rule="evenodd" transform="matrix(1 0 0 1.00079 -6737.87 -1340.88)"/><path d="M8489.78 2099.25 8530.77 2099.25 8563.48 2105.81 8575.68 2113.99 8575.68 2686.77 8489.78 2686.77Z" fill="#ED7D31" fill-rule="evenodd" transform="matrix(1 0 0 1.00079 -6737.87 -1340.88)"/></g></g></g></g></g></svg>