<?xml version="1.0" encoding="UTF-8"?>
<!DOCTYPE svg PUBLIC "-//W3C//DTD SVG 1.1//EN" "http://www.w3.org/Graphics/SVG/1.1/DTD/svg11.dtd">
<svg xmlns="http://www.w3.org/2000/svg" version="1.1" width="212px" height="250px" style="shape-rendering:geometricPrecision; text-rendering:geometricPrecision; image-rendering:optimizeQuality; fill-rule:evenodd; clip-rule:evenodd" xmlns:xlink="http://www.w3.org/1999/xlink">
<g><path style="opacity:1" fill="#b29659" d="M 101.5,5.5 C 106.179,5.33418 110.845,5.50085 115.5,6C 118.598,7.26787 120.265,9.6012 120.5,13C 118.827,18.707 118.16,24.3737 118.5,30C 119.548,32.8869 121.214,35.3869 123.5,37.5C 139.097,40.6401 154.097,45.4734 168.5,52C 182.471,59.3011 191.138,70.6344 194.5,86C 194.1,93.6276 191.433,100.294 186.5,106C 185.5,106.5 184.5,107 183.5,107.5C 172.387,101.972 160.721,98.1387 148.5,96C 110.976,90.336 73.9755,91.6693 37.5,100C 34.7469,103.818 31.2469,104.985 27,103.5C 21.6212,96.3661 19.2879,88.3661 20,79.5C 21.6667,75.5 23.3333,71.5 25,67.5C 35.661,55.4133 48.8277,47.2466 64.5,43C 73.0399,40.692 81.7065,39.0254 90.5,38C 93.7284,36.4371 95.8951,33.9371 97,30.5C 97.3777,23.8109 97.3777,17.1442 97,10.5C 97.7404,8.02966 99.2404,6.363 101.5,5.5 Z"/></g>
<g><path style="opacity:1" fill="#604c3f" d="M 93.5,96.5 C 88.0247,97.4889 82.358,97.8222 76.5,97.5C 81.233,96.8103 86.0664,96.1437 91,95.5C 91.6708,96.2524 92.5041,96.5858 93.5,96.5 Z"/></g>
<g><path style="opacity:1" fill="#311607" d="M 116.5,96.5 C 122.919,98.2007 129.585,98.8674 136.5,98.5C 139.881,98.4595 143.214,98.7929 146.5,99.5C 146.611,100.117 146.944,100.617 147.5,101C 149.81,101.497 152.143,101.663 154.5,101.5C 163.514,102.829 171.848,105.829 179.5,110.5C 179.927,113.01 180.593,115.343 181.5,117.5C 184.874,145.467 179.374,171.467 165,195.5C 154.782,209.423 141.282,218.423 124.5,222.5C 122.62,222.229 121.287,222.896 120.5,224.5C 115.395,229.103 110.395,233.936 105.5,239C 104.5,239.667 103.5,239.667 102.5,239C 98.1603,234.993 94.1603,230.66 90.5,226C 80.8333,221 71.1667,216 61.5,211C 47.875,200.269 38.875,186.435 34.5,169.5C 34.7847,166.171 34.1181,163.171 32.5,160.5C 28.7696,143.471 28.6029,126.138 32,108.5C 37.4408,104.297 43.6075,101.963 50.5,101.5C 53.2282,101.829 55.5615,101.163 57.5,99.5C 63.617,98.1208 69.9503,97.4541 76.5,97.5C 82.358,97.8222 88.0247,97.4889 93.5,96.5C 100.559,96.0152 108.225,96.0152 116.5,96.5 Z"/></g>
<g><path style="opacity:1" fill="#685448" d="M 116.5,96.5 C 123.374,96.5207 130.041,97.1873 136.5,98.5C 129.585,98.8674 122.919,98.2007 116.5,96.5 Z"/></g>
<g><path style="opacity:1" fill="#6b594f" d="M 57.5,99.5 C 55.5615,101.163 53.2282,101.829 50.5,101.5C 52.5994,100.388 54.9327,99.7215 57.5,99.5 Z"/></g>
<g><path style="opacity:1" fill="#6d594d" d="M 146.5,99.5 C 149.373,99.8023 152.039,100.469 154.5,101.5C 152.143,101.663 149.81,101.497 147.5,101C 146.944,100.617 146.611,100.117 146.5,99.5 Z"/></g>
<g><path style="opacity:1" fill="#69564b" d="M 179.5,110.5 C 180.117,110.611 180.617,110.944 181,111.5C 181.495,113.473 181.662,115.473 181.5,117.5C 180.593,115.343 179.927,113.01 179.5,110.5 Z"/></g>
<g><path style="opacity:1" fill="#715f54" d="M 32.5,160.5 C 34.1181,163.171 34.7847,166.171 34.5,169.5C 33.6932,166.704 32.6932,163.87 31.5,161C 31.7284,160.601 32.0618,160.435 32.5,160.5 Z"/></g>
<g><path style="opacity:1" fill="#f8f7f6" d="M 53.5,181.5 C 63.3043,183.119 70.471,188.452 75,197.5C 77.672,206.829 74.5053,209.996 65.5,207C 57.2937,202.961 52.2937,196.461 50.5,187.5C 50.4672,184.898 51.4672,182.898 53.5,181.5 Z"/></g>
<g><path style="opacity:1" fill="#90857e" d="M 124.5,222.5 C 123.486,223.674 122.153,224.34 120.5,224.5C 121.287,222.896 122.62,222.229 124.5,222.5 Z"/></g>
</svg>
